<?xml version="1.0" encoding="UTF-8"?>
<svg version="1.1" xmlns="http://www.w3.org/2000/svg" width="32" height="32">
<path d="M0 0 C10.56 0 21.12 0 32 0 C32 10.56 32 21.12 32 32 C21.44 32 10.88 32 0 32 C0 21.44 0 10.88 0 0 Z " fill="#28475C" transform="translate(0,0)"/>
<path d="M0 0 C0 0.66 0 1.32 0 2 C0.99 1.67 1.98 1.34 3 1 C3.06058594 1.69867188 3.12117188 2.39734375 3.18359375 3.1171875 C3.26738281 4.02726563 3.35117187 4.93734375 3.4375 5.875 C3.51871094 6.77992187 3.59992187 7.68484375 3.68359375 8.6171875 C3.86989285 11.01110861 3.86989285 11.01110861 5 13 C3.8828125 15.01171875 3.8828125 15.01171875 2 17 C-0.8828125 17.20703125 -0.8828125 17.20703125 -4.125 16.8125 C-5.20007813 16.69519531 -6.27515625 16.57789062 -7.3828125 16.45703125 C-10 16 -10 16 -11 15 C-11.4881212 10.15879793 -11.92606111 5.59282511 -9.4375 1.3125 C-6.177046 -0.44312908 -3.64354222 -0.28027248 0 0 Z " fill="#578096" transform="translate(20,8)"/>
<path d="M0 0 C-0.66 1.32 -1.32 2.64 -2 4 C-2 3.01 -2 2.02 -2 1 C-3.32 1 -4.64 1 -6 1 C-6.33 2.32 -6.66 3.64 -7 5 C-7.99 5 -8.98 5 -10 5 C-9.67 7.97 -9.34 10.94 -9 14 C-6.03 14.495 -6.03 14.495 -3 15 C-3 15.33 -3 15.66 -3 16 C-5.33294775 16.04241723 -7.66702567 16.04092937 -10 16 C-11.72584734 14.27415266 -11.2533507 12.03790633 -11.3125 9.6875 C-11.26636037 6.13474863 -11.24162292 4.41559142 -9.4375 1.3125 C-6.177046 -0.44312908 -3.64354222 -0.28027248 0 0 Z " fill="#7098AB" transform="translate(20,8)"/>
<path d="M0 0 C1.32 0 2.64 0 4 0 C5.42944945 2.35438733 6.08661261 3.48032433 5.625 6.25 C5.41875 6.8275 5.2125 7.405 5 8 C2.36 8 -0.28 8 -3 8 C-3 6.68 -3 5.36 -3 4 C-2.34 3.67 -1.68 3.34 -1 3 C-0.67 2.01 -0.34 1.02 0 0 Z " fill="#36576C" transform="translate(14,9)"/>
<path d="M0 0 C0.33 0.66 0.66 1.32 1 2 C0.67 2.99 0.34 3.98 0 5 C-1.65 4.67 -3.3 4.34 -5 4 C-5 3.01 -5 2.02 -5 1 C-3.35 0.67 -1.7 0.34 0 0 Z " fill="#547F95" transform="translate(22,20)"/>
<path d="M0 0 C0.66 0.33 1.32 0.66 2 1 C2.59355614 3.64860427 2.74209269 6.29197322 3 9 C1.68 8.34 0.36 7.68 -1 7 C-0.7525 6.1028125 -0.7525 6.1028125 -0.5 5.1875 C0.1114124 2.88655664 0.1114124 2.88655664 0 0 Z " fill="#547D94" transform="translate(19,10)"/>
</svg>
